{"title":"Scooby-Doo.Wrestlemania.Mystery.2014.720p.BluRay.DTS-5.1.x264-AX","uid":9774186,"size":3047147688,"categoryP":"video","categoryS":"hd___movies","magnet":"?xt=urn:btih:ff9c495bfdf568b0f26d926824c026add2d90de3&amp;dn=Scooby-Doo.Wrestlemania.Mystery.2014.720p.BluRay.DTS-5.1.x264-AX&amp;tr=udp%3A%2F%2Ftracker.openbittorrent.com%3A80&amp;tr=udp%3A%2F%2Fopen.demonii.com%3A1337&amp;tr=udp%3A%2F%2Ftracker.coppersurfer.tk%3A6969&amp;tr=udp%3A%2F%2Fexodus.desync.com%3A6969","seeders":1,"leechers":0,"uploader":"lokioddin","files":4,"time":1395001964,"description":"[b]SilverTorrent - Clean And Verified Torrents Download[/b]\n\n\n[img]http://lookpic.com/O/i2/725/2RcVk1Lg.jpeg[/img]\n\nIMDB: &lt;a href=&quot;\nhttp://www.imdb.com/title/tt2337576&quot; rel=&quot;nofollow&quot; target=&quot;_NEW&quot;&gt;\nhttp://www.imdb.com/title/tt2337576&lt;/a&gt;\n\nPLOT INFO:\nWhen Shaggy and Scooby win tickets to WrestleMania, the entire gang travels in the Mystery Machine to WWE City to attend the epic event. However, when a mysterious ghostly bear appears and threatens to ruin the show, Scooby, Shaggy, Velma, Daphne and Fred work with WWE Superstars to solve the case.\n\nMedia Info:\nGeneral\nComplete name                            : Scooby-Doo.Wrestlemania.Mystery.2014.720p.BluRay.DTS-5.1.x264-AXED.mkv\nFormat                                   : Matroska\nFormat version                           : Version 2\nFile size                                : 2.81 GiB\nDuration                                 : 1h 23mn\nOverall bit rate                         : 4 814 Kbps\nEncoded date                             : UTC 2014-03-16 17:12:22\nWriting application                      : mkvmerge v4.0.0 ('The Stars were mine') built on Jun  6 2010 16:18:42\nWriting library                          : libebml v1.0.0 + libmatroska v1.0.0\n\nVideo\nID                                       : 1\nFormat                                   : AVC\nFormat/Info                              : Advanced Video Codec\nFormat profile                           : &lt;a class=&quot;__cf_email__&quot; href=&quot;/cdn-cgi/l/email-protection&quot; data-cfemail=&quot;fcb4959b94bcb0c8d2cd&quot;&gt;[email&amp;#160;protected]&lt;/a&gt;&lt;script cf-hash='f9e31' type=&quot;text/javascript&quot;&gt;\n/* &lt;![CDATA[ */!function(){try{var t=&quot;currentScript&quot;in document?document.currentScript:function(){for(var t=document.getElementsByTagName(&quot;script&quot;),e=t.length;e--;)if(t[e].getAttribute(&quot;cf-hash&quot;))return t[e]}();if(t&amp;&amp;t.previousSibling){var e,r,n,i,c=t.previousSibling,a=c.getAttribute(&quot;data-cfemail&quot;);if(a){for(e=&quot;&quot;,r=parseInt(a.substr(0,2),16),n=2;a.length-n;n+=2)i=parseInt(a.substr(n,2),16)^r,e+=String.fromCharCode(i);e=document.createTextNode(e),c.parentNode.replaceChild(e,c)}}}catch(u){}}();/* ]]&gt; */&lt;/script&gt;\nFormat settings, CABAC                   : Yes\nFormat settings, ReFrames                : 9 frames\nCodec ID                                 : V_MPEG4/ISO/AVC\nDuration                                 : 1h 23mn\nBit rate                                 : 3 208 Kbps\nWidth                                    : 1 280 pixels\nHeight                                   : 720 pixels\nDisplay aspect ratio                     : 16:9\nFrame rate mode                          : Constant\nFrame rate                               : 23.976 fps\nColor space                              : YUV\nChroma subsampling                       : 4:2:0\nBit depth                                : 8 bits\nScan type                                : Progressive\nBits/(Pixel*Frame)                       : 0.145\nStream size                              : 1.88 GiB (67%)\nWriting library                          : x264 core 68 r1195bm 5d75a9b\n\nAudio\nID                                       : 2\nFormat                                   : DTS\nFormat/Info                              : Digital Theater Systems\nCodec ID                                 : A_DTS\nDuration                                 : 1h 23mn\nBit rate mode                            : Constant\nBit rate                                 : 1 510 Kbps\nChannel(s)                               : 6 channels\nChannel positions                        : Front: L C R, Side: L R, LFE\nSampling rate                            : 48.0 KHz\nBit depth                                : 24 bits\nCompression mode                         : Lossy\nStream size                              : 904 MiB (31%)\nDefault                                  : Yes\nForced                                   : No\n\nSCREENS:\n\n &lt;a href=&quot;\nhttp://lookpic.com/O/i2/716/vdPQXlvg.png&quot; rel=&quot;nofollow&quot; target=&quot;_NEW&quot;&gt;\nhttp://lookpic.com/O/i2/716/vdPQXlvg.png&lt;/a&gt;\n &lt;a href=&quot;\nhttp://lookpic.com/O/i2/1682/5KCUnAG1.png&quot; rel=&quot;nofollow&quot; target=&quot;_NEW&quot;&gt;\nhttp://lookpic.com/O/i2/1682/5KCUnAG1.png&lt;/a&gt;\n &lt;a href=&quot;\nhttp://lookpic.com/O/i2/1770/RjWGsd6Q.png&quot; rel=&quot;nofollow&quot; target=&quot;_NEW&quot;&gt;\nhttp://lookpic.com/O/i2/1770/RjWGsd6Q.png&lt;/a&gt;\n\n\n[b]SilverTorrent - Clean And Verified Torrents Download[/b]\n\n","torrent":{"xt":"urn:btih:ff9c495bfdf568b0f26d926824c026add2d90de3","amp;dn":"Scooby-Doo.Wrestlemania.Mystery.2014.720p.BluRay.DTS-5.1.x264-AX","amp;tr":["udp%3A%2F%2Ftracker.openbittorrent.com%3A80","udp%3A%2F%2Fopen.demonii.com%3A1337","udp%3A%2F%2Ftracker.coppersurfer.tk%3A6969","udp%3A%2F%2Fexodus.desync.com%3A6969"],"infoHash":"ff9c495bfdf568b0f26d926824c026add2d90de3","infoHashBuffer":{"type":"Buffer","data":[255,156,73,91,253,245,104,176,242,109,146,104,36,192,38,173,210,217,13,227]},"announce":[],"urlList":[]}}